<svg viewBox="0 0 1984 1207" xmlns="http://www.w3.org/2000/svg">
  <path d="M348.164 0.481934H155.582L0.858003 1207H157.228L186.856 940.348H311.952L341.58 1207H501.242L348.164 0.481934ZM203.316 795.5L249.404 346.142L295.492 795.5H203.316ZM560.757 1207H939.337V1055.57H717.127V0.481934H560.757V1207ZM986.198 1207H1295.65C1374.65 1207 1440.49 1141.16 1440.49 1062.15V145.33C1440.49 66.322 1374.65 0.481934 1295.65 0.481934H986.198V1207ZM1284.12 1017.71C1284.12 1039.11 1267.66 1055.57 1246.27 1055.57H1142.57V151.914H1246.27C1267.66 151.914 1284.12 168.374 1284.12 189.772V1017.71ZM1838.24 1207C1917.24 1207 1983.08 1141.16 1983.08 1062.15V145.33C1983.08 66.322 1917.24 0.481934 1838.24 0.481934H1673.64C1594.63 0.481934 1528.79 66.322 1528.79 145.33V1062.15C1528.79 1141.16 1594.63 1207 1673.64 1207H1838.24ZM1685.16 189.772C1685.16 168.374 1701.62 151.914 1723.02 151.914H1788.86C1810.25 151.914 1826.71 168.374 1826.71 189.772V1017.71C1826.71 1039.11 1810.25 1055.57 1788.86 1055.57H1723.02C1701.62 1055.57 1685.16 1039.11 1685.16 1017.71V189.772Z" fill="#000" />
</svg>
