<svg viewBox="0 0 2986 1207" xmlns="http://www.w3.org/2000/svg">
  <path d="M297.996 760.934V1017.71C297.996 1039.11 281.536 1055.57 260.138 1055.57H194.298C172.9 1055.57 156.44 1039.11 156.44 1017.71V189.772C156.44 168.374 172.9 151.914 194.298 151.914H260.138C281.536 151.914 297.996 168.374 297.996 189.772V446.548H451.074V145.33C451.074 66.322 385.234 0.481934 306.226 0.481934H144.918C65.91 0.481934 0.0700029 66.322 0.0700029 145.33V1062.15C0.0700029 1141.16 65.91 1207 144.918 1207H306.226C385.234 1207 451.074 1141.16 451.074 1062.15V760.934H297.996ZM539.831 1207H918.411V1055.57H696.201V0.481934H539.831V1207ZM1266.49 1207C1345.5 1207 1411.34 1141.16 1411.34 1062.15V145.33C1411.34 66.322 1345.5 0.481934 1266.49 0.481934H1101.89C1022.88 0.481934 957.043 66.322 957.043 145.33V1062.15C957.043 1141.16 1022.88 1207 1101.89 1207H1266.49ZM1113.41 189.772C1113.41 168.374 1129.87 151.914 1151.27 151.914H1217.11C1238.51 151.914 1254.97 168.374 1254.97 189.772V1017.71C1254.97 1039.11 1238.51 1055.57 1217.11 1055.57H1151.27C1129.87 1055.57 1113.41 1039.11 1113.41 1017.71V189.772ZM1600.42 1207H1794.65L1947.73 0.481934H1793.01L1702.48 811.96H1699.18L1607.01 0.481934H1447.35L1600.42 1207ZM2369.75 655.59V504.158H2155.77V151.914H2386.21V0.481934H1999.4V1207H2386.21V1055.57H2155.77V655.59H2369.75ZM2458.6 1207H2614.97V655.59H2670.93L2817.43 1207H2985.32L2827.3 640.776C2884.91 621.024 2912.89 566.706 2912.89 502.512V145.33C2912.89 66.322 2847.05 0.481934 2768.05 0.481934H2458.6V1207ZM2756.52 466.3C2756.52 487.698 2740.06 504.158 2718.67 504.158H2614.97V151.914H2718.67C2740.06 151.914 2756.52 168.374 2756.52 189.772V466.3Z" fill="#000" />
</svg>
