<svg viewBox="0 0 4750 1207" xmlns="http://www.w3.org/2000/svg">
  <path d="M223.926 576.582V726.368H297.996V1017.71C297.996 1039.11 281.536 1055.57 260.138 1055.57H194.298C172.9 1055.57 156.44 1039.11 156.44 1017.71V189.772C156.44 168.374 172.9 151.914 194.298 151.914H260.138C281.536 151.914 297.996 168.374 297.996 189.772V446.548H451.074V145.33C451.074 66.322 385.234 0.481934 306.226 0.481934H144.918C65.91 0.481934 0.0700029 66.322 0.0700029 145.33V1062.15C0.0700029 1141.16 65.91 1207 144.918 1207H309.518C388.526 1207 454.366 1141.16 454.366 1062.15V576.582H223.926ZM853.947 0.481934H661.365L506.641 1207H663.011L692.639 940.348H817.735L847.363 1207H1007.03L853.947 0.481934ZM709.099 795.5L755.187 346.142L801.275 795.5H709.099ZM1066.54 1207H1222.91V0.481934H1066.54V1207ZM1476.16 1207V777.394L1469.58 528.848H1471.23L1634.18 1207H1774.09V0.481934H1625.95V430.088L1632.53 678.634H1630.89L1467.93 0.481934H1328.02V1207H1476.16ZM2328.2 145.33C2328.2 66.322 2262.36 0.481934 2183.35 0.481934H1878.84V1207H2183.35C2262.36 1207 2328.2 1141.16 2328.2 1062.15V709.908C2328.2 627.608 2282.11 588.104 2242.61 578.228C2282.11 568.352 2328.2 528.848 2328.2 446.548V145.33ZM2171.83 466.3C2171.83 487.698 2155.37 504.158 2133.97 504.158H2035.21V151.914H2133.97C2155.37 151.914 2171.83 168.374 2171.83 189.772V466.3ZM2171.83 1017.71C2171.83 1039.11 2155.37 1055.57 2133.97 1055.57H2035.21V653.944H2133.97C2155.37 653.944 2171.83 670.404 2171.83 691.802V1017.71ZM2424.84 1207H2581.21V655.59H2637.18L2783.67 1207H2951.56L2793.55 640.776C2851.16 621.024 2879.14 566.706 2879.14 502.512V145.33C2879.14 66.322 2813.3 0.481934 2734.29 0.481934H2424.84V1207ZM2722.77 466.3C2722.77 487.698 2706.31 504.158 2684.91 504.158H2581.21V151.914H2684.91C2706.31 151.914 2722.77 168.374 2722.77 189.772V466.3ZM3007.81 1207H3164.18V0.481934H3007.81V1207ZM3269.3 1207H3578.74C3657.75 1207 3723.59 1141.16 3723.59 1062.15V145.33C3723.59 66.322 3657.75 0.481934 3578.74 0.481934H3269.3V1207ZM3567.22 1017.71C3567.22 1039.11 3550.76 1055.57 3529.36 1055.57H3425.67V151.914H3529.36C3550.76 151.914 3567.22 168.374 3567.22 189.772V1017.71ZM4035.74 576.582V726.368H4109.81V1017.71C4109.81 1039.11 4093.35 1055.57 4071.95 1055.57H4006.11C3984.72 1055.57 3968.26 1039.11 3968.26 1017.71V189.772C3968.26 168.374 3984.72 151.914 4006.11 151.914H4071.95C4093.35 151.914 4109.81 168.374 4109.81 189.772V446.548H4262.89V145.33C4262.89 66.322 4197.05 0.481934 4118.04 0.481934H3956.73C3877.73 0.481934 3811.89 66.322 3811.89 145.33V1062.15C3811.89 1141.16 3877.73 1207 3956.73 1207H4121.33C4200.34 1207 4266.18 1141.16 4266.18 1062.15V576.582H4035.74ZM4733.25 655.59V504.158H4519.27V151.914H4749.71V0.481934H4362.9V1207H4749.71V1055.57H4519.27V655.59H4733.25Z" fill="white" />
</svg>
