<svg viewBox="0 0 2181 1207" xmlns="http://www.w3.org/2000/svg">
  <path d="M153.706 1207H347.934L501.012 0.481934H346.288L255.758 811.96H252.466L160.29 0.481934H0.628002L153.706 1207ZM552.683 1207H709.053V0.481934H552.683V1207ZM1260.23 375.77V145.33C1260.23 66.322 1194.39 0.481934 1115.39 0.481934H950.785C871.777 0.481934 805.937 66.322 805.937 145.33V313.222C805.937 402.106 822.397 446.548 860.255 489.344L1072.59 729.66C1090.7 751.058 1103.86 780.686 1103.86 811.96V1017.71C1103.86 1039.11 1087.4 1055.57 1066.01 1055.57H1000.17C978.767 1055.57 962.307 1039.11 962.307 1017.71V816.898H805.937V1062.15C805.937 1141.16 871.777 1207 950.785 1207H1115.39C1194.39 1207 1260.23 1141.16 1260.23 1062.15V795.5C1260.23 718.138 1232.25 667.112 1189.46 619.378L993.581 400.46C977.121 382.354 962.307 357.664 962.307 318.16V189.772C962.307 168.374 978.767 151.914 1000.17 151.914H1066.01C1087.4 151.914 1103.86 168.374 1103.86 189.772V375.77H1260.23ZM1579.55 1207V151.914H1719.46V0.481934H1283.27V151.914H1423.18V1207H1579.55ZM2027.39 0.481934H1834.81L1680.08 1207H1836.45L1866.08 940.348H1991.18L2020.8 1207H2180.47L2027.39 0.481934ZM1882.54 795.5L1928.63 346.142L1974.72 795.5H1882.54Z" fill="#000" />
</svg>
